<svg xmlns="http://www.w3.org/2000/svg" viewBox="-16 -16 544 544"><defs><linearGradient id="g" x1="0.12" y1="0" x2="0.4" y2="1"><stop offset="0" stop-color="#e07a63"/><stop offset="0.46" stop-color="#c74a34"/><stop offset="1" stop-color="#7e2719"/></linearGradient><clipPath id="c"><path d="M154 92H358A62 62 0 0 1 420 154V358A62 62 0 0 1 358 420H154A62 62 0 0 1 92 358V154A62 62 0 0 1 154 92ZM223 207L156 207L156 273L223 273L223 340L289 340L289 273L356 273L356 207L289 207L289 140L223 140ZM236 424L276 424L256 478Z"/></clipPath><mask id="hi"><path d="M154 92H358A62 62 0 0 1 420 154V358A62 62 0 0 1 358 420H154A62 62 0 0 1 92 358V154A62 62 0 0 1 154 92ZM223 207L156 207L156 273L223 273L223 340L289 340L289 273L356 273L356 207L289 207L289 140L223 140ZM236 424L276 424L256 478Z" fill="#fff"/><g transform="translate(26,26)"><path d="M154 92H358A62 62 0 0 1 420 154V358A62 62 0 0 1 358 420H154A62 62 0 0 1 92 358V154A62 62 0 0 1 154 92ZM223 207L156 207L156 273L223 273L223 340L289 340L289 273L356 273L356 207L289 207L289 140L223 140ZM236 424L276 424L256 478Z" fill="#000"/></g></mask><mask id="sh"><path d="M154 92H358A62 62 0 0 1 420 154V358A62 62 0 0 1 358 420H154A62 62 0 0 1 92 358V154A62 62 0 0 1 154 92ZM223 207L156 207L156 273L223 273L223 340L289 340L289 273L356 273L356 207L289 207L289 140L223 140ZM236 424L276 424L256 478Z" fill="#fff"/><g transform="translate(-26,-26)"><path d="M154 92H358A62 62 0 0 1 420 154V358A62 62 0 0 1 358 420H154A62 62 0 0 1 92 358V154A62 62 0 0 1 154 92ZM223 207L156 207L156 273L223 273L223 340L289 340L289 273L356 273L356 207L289 207L289 140L223 140ZM236 424L276 424L256 478Z" fill="#000"/></g></mask></defs><path d="M154 92H358A62 62 0 0 1 420 154V358A62 62 0 0 1 358 420H154A62 62 0 0 1 92 358V154A62 62 0 0 1 154 92ZM223 207L156 207L156 273L223 273L223 340L289 340L289 273L356 273L356 207L289 207L289 140L223 140ZM236 424L276 424L256 478Z" fill="none" stroke="#150e07" stroke-width="26" stroke-linejoin="round" stroke-linecap="round"/><path d="M154 92H358A62 62 0 0 1 420 154V358A62 62 0 0 1 358 420H154A62 62 0 0 1 92 358V154A62 62 0 0 1 154 92ZM223 207L156 207L156 273L223 273L223 340L289 340L289 273L356 273L356 207L289 207L289 140L223 140ZM236 424L276 424L256 478Z" fill="url(#g)"/><g clip-path="url(#c)"><ellipse cx="168" cy="120" rx="230" ry="190" fill="#ffb49c" opacity="0.22"/><ellipse cx="256" cy="486" rx="290" ry="130" fill="#380e08" opacity="0.3"/><rect x="-140" y="10" width="740" height="104" fill="#fff8e6" opacity="0.17" transform="rotate(24 256 256)"/></g><g mask="url(#hi)"><path d="M154 92H358A62 62 0 0 1 420 154V358A62 62 0 0 1 358 420H154A62 62 0 0 1 92 358V154A62 62 0 0 1 154 92ZM223 207L156 207L156 273L223 273L223 340L289 340L289 273L356 273L356 207L289 207L289 140L223 140ZM236 424L276 424L256 478Z" fill="#ffb49c"/></g><g mask="url(#sh)"><path d="M154 92H358A62 62 0 0 1 420 154V358A62 62 0 0 1 358 420H154A62 62 0 0 1 92 358V154A62 62 0 0 1 154 92ZM223 207L156 207L156 273L223 273L223 340L289 340L289 273L356 273L356 207L289 207L289 140L223 140ZM236 424L276 424L256 478Z" fill="#5e180d"/></g></svg>
